<?xml version="1.0" standalone="no"?>
<!DOCTYPE svg PUBLIC "-//W3C//DTD SVG 20010904//EN"
 "http://www.w3.org/TR/2001/REC-SVG-20010904/DTD/svg10.dtd">
<svg version="1.0" xmlns="http://www.w3.org/2000/svg"
 width="200.000000pt" height="200.000000pt" viewBox="0 0 200.000000 200.000000"
 preserveAspectRatio="xMidYMid meet">

<g transform="translate(0.000000,200.000000) scale(0.100000,-0.100000)"
fill="#000000" stroke="none">
<path d="M859 1607 c-126 -36 -219 -135 -235 -250 -9 -61 4 -68 117 -65 l92 3
27 49 c16 30 39 56 60 68 93 49 210 -8 210 -104 0 -64 -27 -105 -104 -163
-131 -97 -154 -138 -163 -287 -7 -115 -4 -118 101 -118 44 0 87 4 93 8 7 4 15
37 19 72 9 98 34 142 112 197 90 63 129 99 160 153 24 40 27 55 27 140 0 78
-4 102 -22 136 -29 54 -93 111 -162 142 -48 22 -72 26 -171 29 -73 2 -132 -2
-161 -10z"/>
<path d="M913 631 c-49 -23 -73 -62 -73 -121 0 -79 52 -130 132 -130 57 0 99
27 122 78 33 74 -6 160 -82 182 -48 13 -50 13 -99 -9z"/>
</g>
</svg>
